<?xml version="1.0" standalone="no"?>
<!DOCTYPE svg PUBLIC "-//W3C//DTD SVG 20010904//EN" "http://www.w3.org/TR/2001/REC-SVG-20010904/DTD/svg10.dtd">
<svg version="1.0" xmlns="http://www.w3.org/2000/svg" width="1332.000000pt" height="402.000000pt" viewBox="0 0 1332.000000 402.000000" preserveAspectRatio="xMidYMid meet">
  <g transform="translate(0.000000,402.000000) scale(0.100000,-0.100000)"
  fill="#ffffff" stroke="none">
    <path d="M495 4000 c-176 -36 -340 -163 -418 -323 -66 -137 -62 -35 -62 -1677
    l0 -1495 28 -78 c67 -190 205 -328 388 -388 l74 -24 1510 0 c1454 0 1512 1
    1565 19 217 74 361 224 414 432 14 55 16 226 16 1546 0 1468 0 1484 -21 1558
    -52 190 -191 339 -380 408 l-74 27 -1500 1 c-825 1 -1518 -2 -1540 -6z m2853
    -1412 l-3 -1111 -275 -73 c-151 -41 -280 -74 -287 -74 -9 0 -13 35 -15 127
    l-3 128 -360 72 c-626 126 -1109 224 -1127 229 -17 5 -18 -25 -18 -525 0 -292
    3 -531 6 -531 4 0 201 51 438 114 237 63 483 128 546 145 368 97 1068 282
    1083 287 16 5 17 -8 17 -175 0 -100 -2 -181 -5 -181 -5 0 -459 -120 -1630
    -430 -435 -115 -479 -127 -814 -215 -120 -32 -218 -52 -222 -48 -5 5 -8 500
    -7 1114 l3 1104 45 11 c25 7 149 39 277 73 127 33 238 61 247 61 14 0 16 -17
    16 -125 0 -121 1 -125 23 -130 60 -14 1465 -295 1475 -295 9 0 12 133 12 525
    0 333 -4 525 -10 525 -5 0 -92 -22 -192 -49 -101 -26 -415 -110 -698 -184
    -283 -75 -666 -176 -850 -225 -184 -49 -338 -87 -343 -85 -4 2 -7 81 -7 174 0
    166 0 170 23 179 12 5 218 61 457 124 657 173 1351 357 1780 471 212 57 393
    104 403 104 16 1 17 -56 15 -1111z"/>
    <path d="M6540 3660 l0 -60 -176 0 -176 0 4 -106 c3 -102 4 -107 31 -130 l28
    -24 454 0 c263 0 464 4 479 10 38 14 49 45 50 149 l1 96 -157 3 -158 3 0 59 0
    60 -190 0 -190 0 0 -60z"/>
    <path d="M4614 3597 c-2 -7 -3 -373 -2 -813 3 -744 4 -801 21 -825 9 -14 29
    -31 43 -37 40 -19 718 -16 826 3 47 8 92 17 101 21 11 4 16 -1 19 -18 3 -22 6
    -23 109 -23 100 0 108 2 155 30 30 19 60 49 79 79 l30 49 3 774 2 773 -190 0
    -190 0 0 -689 0 -689 -72 -12 c-40 -7 -182 -15 -315 -17 l-243 -5 0 706 0 706
    -185 0 c-144 0 -187 -3 -191 -13z"/>
    <path d="M7310 3165 l0 -445 133 0 c108 0 140 4 174 19 74 34 73 29 73 476 l0
    395 -190 0 -190 0 0 -445z"/>
    <path d="M8450 3325 l0 -286 25 -24 24 -25 645 0 c451 0 652 3 669 11 44 20
    47 44 47 334 l0 275 -190 0 -190 0 0 -35 0 -35 -325 0 -325 0 0 35 0 35 -190
    0 -190 0 0 -285z m1030 -40 l0 -25 -325 0 -325 0 0 25 0 25 325 0 325 0 0 -25z"/>
    <path d="M10127 3603 c-11 -11 -8 -198 4 -232 6 -17 21 -37 33 -44 15 -9 144
    -13 499 -15 l477 -3 0 -59 0 -60 -505 0 -505 0 0 -324 0 -325 24 -28 24 -28
    667 0 667 0 24 28 c22 26 24 36 24 143 l0 114 -525 0 -525 0 0 65 0 65 479 0
    480 0 28 24 28 24 0 329 0 328 -696 3 c-382 1 -699 -1 -702 -5z"/>
    <path d="M11800 3505 c0 -113 9 -145 49 -172 24 -17 67 -18 509 -21 l482 -3 0
    -342 c0 -373 -10 -522 -40 -619 -11 -35 -20 -66 -20 -71 0 -4 82 -6 182 -5
    l181 3 29 78 c15 43 32 117 38 165 5 48 10 313 10 590 l0 502 -710 0 -710 0 0
    -105z"/>
    <path d="M6356 3285 c-47 -17 -94 -59 -112 -102 -10 -22 -14 -74 -14 -163 0
    -144 8 -177 56 -222 58 -54 87 -58 439 -58 339 0 363 3 423 47 59 44 72 85 72
    233 0 141 -10 179 -62 227 -52 49 -86 53 -437 53 -251 -1 -335 -4 -365 -15z
    m468 -241 c26 -10 20 -53 -9 -60 -45 -11 -195 0 -204 15 -12 18 -4 39 17 44
    26 7 179 8 196 1z"/>
    <path d="M8351 2853 c0 -103 15 -143 59 -166 33 -16 84 -17 755 -15 777 3 750
    1 774 55 6 13 11 64 11 113 l0 90 -800 0 -800 0 1 -77z"/>
    <path d="M6340 2600 c0 -83 2 -93 25 -115 l24 -25 461 0 460 0 0 -25 0 -25
    -485 0 -485 0 0 -214 c0 -118 4 -226 10 -240 21 -56 15 -56 670 -56 659 0 662
    0 677 57 4 15 8 62 8 103 l0 75 -492 3 -493 2 0 25 0 25 460 0 461 0 24 25 25
    24 0 226 0 225 -675 0 -675 0 0 -90z"/>
    <path d="M8440 2541 c0 -93 14 -117 75 -131 22 -5 248 -10 503 -10 436 0 463
    -1 460 -17 -3 -17 -37 -18 -521 -21 l-517 -2 0 -185 c0 -207 8 -243 56 -263
    22 -9 192 -12 677 -10 l649 3 24 28 c21 25 24 38 24 108 l0 79 -525 0 c-515 0
    -525 0 -525 20 0 19 11 19 495 22 l494 3 23 23 c22 22 23 30 26 227 l3 205
    -710 0 -711 0 0 -79z"/>
    <path d="M10670 2310 l0 -110 -315 0 -315 0 0 -97 c0 -80 4 -104 20 -130 40
    -66 7 -63 770 -63 763 0 736 -2 775 63 16 26 20 51 20 127 l0 95 -287 3 -288
    2 0 110 0 110 -190 0 -190 0 0 -110z"/>
    <path d="M11720 2103 c0 -80 4 -104 20 -130 40 -66 7 -63 770 -63 763 0 736
    -2 775 63 16 26 20 51 20 127 l0 95 -792 3 -793 2 0 -97z"/>
    <path d="M11529 1618 c-150 -53 -258 -182 -288 -344 -16 -87 -14 -534 3 -615
    36 -170 162 -300 327 -338 63 -15 195 -13 255 3 153 41 255 148 302 319 22 82
    25 560 3 647 -35 142 -143 276 -258 321 -89 34 -255 38 -344 7z m229 -228 c22
    -14 43 -40 60 -78 l27 -57 0 -270 c0 -285 -5 -322 -48 -386 -47 -69 -144 -76
    -203 -14 -55 59 -65 107 -71 330 -6 227 5 335 39 403 42 85 125 115 196 72z"/>
    <path d="M12637 1629 c-119 -28 -247 -129 -296 -233 -49 -105 -56 -151 -56
    -391 0 -250 14 -345 67 -448 90 -179 274 -269 486 -239 113 16 183 45 247 103
    99 92 132 197 142 457 l6 172 -261 0 -262 0 0 -85 c0 -78 2 -88 25 -110 22
    -23 32 -25 106 -25 l82 0 -5 -83 c-5 -95 -24 -138 -78 -174 -43 -30 -120 -31
    -159 -3 -73 51 -107 222 -99 494 4 134 9 171 27 218 66 171 235 164 298 -12
    l18 -50 149 0 149 0 -6 51 c-18 154 -167 309 -341 355 -57 15 -181 17 -239 3z"/>
    <path d="M4650 975 l0 -645 100 0 c110 0 157 13 184 51 14 21 16 64 16 342 l0
    318 48 -89 c26 -49 115 -209 197 -355 l150 -267 88 0 c54 0 101 6 122 14 67
    28 65 9 65 676 l0 600 -156 0 -155 0 3 -352 3 -353 -30 60 c-16 33 -104 192
    -195 353 l-165 292 -137 0 -138 0 0 -645z"/>
    <path d="M5810 975 l0 -645 100 0 c110 0 157 13 184 51 14 21 16 86 16 631 l0
    608 -150 0 -150 0 0 -645z"/>
    <path d="M6310 975 l0 -645 100 0 c110 0 157 13 184 51 14 20 16 58 16 261 l0
    238 160 0 160 0 0 -276 0 -276 120 4 120 3 32 33 33 32 3 610 3 610 -156 0
    -155 0 0 -255 0 -255 -160 0 -160 0 0 255 0 255 -150 0 -150 0 0 -645z"/>
    <path d="M7430 975 l0 -645 100 0 c110 0 157 13 184 51 14 21 16 86 16 631 l0
    608 -150 0 -150 0 0 -645z"/>
    <path d="M7930 1006 l0 -615 24 -28 24 -28 367 0 367 0 24 28 c21 25 24 38 24
    112 l0 85 -262 2 -263 3 -3 528 -2 527 -150 0 -150 0 0 -614z"/>
    <path d="M9250 1006 l0 -615 24 -28 24 -28 256 -3 c149 -2 280 1 313 7 125 24
    223 95 270 197 30 66 41 181 24 251 -16 64 -72 146 -121 179 l-39 26 48 38
    c32 25 58 58 76 94 25 52 27 63 23 153 -3 76 -10 109 -28 148 -33 69 -107 138
    -177 167 -56 22 -71 23 -375 26 l-318 3 0 -615z m539 369 c76 -39 83 -185 11
    -250 -19 -17 -36 -20 -134 -20 l-111 0 -3 143 -3 142 106 0 c73 0 115 -5 134
    -15z m31 -533 c62 -63 65 -175 5 -240 l-33 -37 -119 0 -118 0 -3 153 -3 152
    122 0 c119 0 121 0 149 -28z"/>
    <path d="M10320 1006 l0 -615 24 -28 24 -28 367 0 367 0 24 28 c21 25 24 38
    24 112 l0 85 -262 2 -263 3 -3 528 -2 527 -150 0 -150 0 0 -614z"/>
  </g>
</svg>
